# xmcd CD database file generated by Grip 3.2.0
# 
# Track frame offsets:
#       150
#       8250
#       30700
#       37952
#       47092
#       57380
#       75090
#       86410
#       102727
#       113277
#       115830
#       122705
#       145825
#       154352
#       162062
#       194262
#       202162
#       211860
#       222709
#       244015
# 
# Disc length: 3390 seconds
# 
# Revision: 1
# Processed by: cddbd v1.5.2PL0 Copyright (c) Steve Scherf et al.
# Submitted via: Grip 3.2.0
# 
DISCID=080d3c14
DTITLE=Various Artist - Geschichte Der Pop Musik CD 36
DYEAR=1998
DGENRE=Blues
TTITLE0=Einleitung
TTITLE1=John Lennon ...
TTITLE2=Original Soho Skiffle Group - Liverpool Blues
TTITLE3=Schön Wär's Ja ...
TTITLE4=The Vipers - Summertime Blues
TTITLE5=Die Musiker Spielen Noch ...
TTITLE6=The Seachers - Sweets For My Sweet
TTITLE7=The Seachers ...
TTITLE8=Bruce Channel - Hey Baby
TTITLE9=Nach Den Ersten ...
TTITLE10=The Big Three - Cavern Stomp
TTITLE11=The Big Three ...
TTITLE12=Gerry And The Peacemakers - How Do You Do It?
TTITLE13=Swinging Blue Jeans - Hippy Hippy Shake
TTITLE14=Uns Ist Kein Stück ...
TTITLE15=Sonny Webb and The Cascades - Border Of The Blues
TTITLE16=Sonny Webb ...
TTITLE17=The Marauders - Dr. Feelgood
TTITLE18=Dr. Feelgood ...
TTITLE19=The Vipers - Liverpool Blues
EXTD=YEAR: 1998
EXTT0=
EXTT1=
EXTT2=
EXTT3=
EXTT4=
EXTT5=
EXTT6=
EXTT7=
EXTT8=
EXTT9=
EXTT10=
EXTT11=
EXTT12=
EXTT13=
EXTT14=
EXTT15=
EXTT16=
EXTT17=
EXTT18=
EXTT19=
PLAYORDER=
